<!DOCTYPE svg PUBLIC "-//W3C//DTD SVG 20010904//EN" "http://www.w3.org/TR/2001/REC-SVG-20010904/DTD/svg10.dtd">
<svg version="1.0" xmlns="http://www.w3.org/2000/svg" width="36px" height="30px" viewBox="0 0 360 300" preserveAspectRatio="xMidYMid meet">
<g id="layer101" fill="#ffcc00" stroke="none">
 <path d="M33 280 c-25 -15 -33 -27 -33 -48 0 -16 3 -32 7 -36 4 -4 6 -36 5 -71 -5 -80 3 -104 36 -116 21 -8 31 -6 54 11 l29 21 26 -20 c33 -27 162 -30 187 -5 17 17 22 84 7 100 -5 5 -14 26 -21 47 -15 49 -65 106 -107 123 -50 21 -152 18 -190 -6z m150 -44 c45 -19 76 -56 92 -110 l14 -46 -30 -15 c-36 -19 -66 -7 -75 30 -5 21 -10 24 -33 19 -14 -4 -37 -13 -49 -21 -29 -18 -41 -9 -24 17 9 14 9 20 -1 24 -8 3 -3 12 13 25 17 14 20 21 10 21 -9 1 -7 5 8 12 31 15 28 27 -10 35 -32 7 -32 7 -8 14 39 11 58 10 93 -5z"/>
 </g>

</svg>